<?xml version="1.0" standalone="no"?>
<!DOCTYPE svg PUBLIC "-//W3C//DTD SVG 20010904//EN"
 "http://www.w3.org/TR/2001/REC-SVG-20010904/DTD/svg10.dtd">
<svg version="1.0" xmlns="http://www.w3.org/2000/svg"
 width="72.000000pt" height="72.000000pt" viewBox="0 0 72.000000 72.000000"
 preserveAspectRatio="xMidYMid meet">
<metadata>
Created by potrace 1.11, written by Peter Selinger 2001-2013
</metadata>
<g transform="translate(0.000000,72.000000) scale(0.100000,-0.100000)"
fill="#000000" stroke="none">
<path d="M152 598 c-82 -112 -76 -86 -77 -340 0 -125 2 -228 5 -229 3 -1 24
-2 48 -4 40 -2 45 1 74 41 17 24 33 44 35 44 2 0 2 -4 -1 -9 -8 -13 33 -61 60
-71 29 -12 72 3 91 30 19 28 33 25 27 -5 -2 -14 -1 -26 3 -26 5 -1 30 -2 56
-3 l49 -2 61 85 61 86 1 228 0 227 -227 0 -227 0 -39 -52z"/>
</g>
</svg>
